<svg width="393" height="404" viewBox="0 0 393 404" fill="none" xmlns="http://www.w3.org/2000/svg">
<path fill-rule="evenodd" clip-rule="evenodd" d="M48.2289 173.703C42.7962 160.587 40 146.529 40 132.333H148.104L148.104 240.437C133.908 240.437 119.85 237.641 106.734 232.208C93.6186 226.775 81.7013 218.812 71.6629 208.774C61.6245 198.736 53.6617 186.818 48.2289 173.703ZM48.2289 281.807C42.7962 268.691 40 254.633 40 240.437H148.104L148.104 348.541C133.908 348.541 119.85 345.745 106.734 340.312C93.6186 334.879 81.7013 326.916 71.6629 316.878C61.6245 306.84 53.6617 294.922 48.2289 281.807ZM148.105 132.333C148.105 146.529 150.902 160.587 156.334 173.703C161.767 186.818 169.73 198.736 179.768 208.774C189.807 218.812 201.724 226.775 214.84 232.208C227.956 237.641 242.013 240.437 256.209 240.437V132.333H148.105ZM156.334 281.807C150.902 268.691 148.105 254.633 148.105 240.437H256.209V348.541C242.013 348.541 227.956 345.745 214.84 340.312C201.724 334.879 189.807 326.916 179.768 316.878C169.73 306.84 161.767 294.922 156.334 281.807Z" fill="#111111"/>
<circle cx="256.069" cy="132.333" r="107.604" stroke="#111111" stroke-dasharray="4 4"/>
<circle cx="147.963" cy="132.333" r="107.604" stroke="#111111" stroke-dasharray="4 4"/>
<circle cx="147.963" cy="240.437" r="107.604" stroke="#111111" stroke-dasharray="4 4"/>
<circle cx="256.069" cy="240.437" r="107.604" stroke="#111111" stroke-dasharray="4 4"/>
<line x1="-4.37114e-08" y1="131.5" x2="393" y2="131.5" stroke="#111111" stroke-dasharray="4 4"/>
<line x1="0.000555994" y1="239.5" x2="393.001" y2="239.937" stroke="#111111" stroke-dasharray="4 4"/>
<line x1="148.484" y1="-2.18557e-08" x2="148.484" y2="404" stroke="#111111" stroke-dasharray="4 4"/>
<line x1="256.961" y1="-2.18557e-08" x2="256.961" y2="404" stroke="#111111" stroke-dasharray="4 4"/>
<mask id="mask0_1848_92" style="mask-type:alpha" maskUnits="userSpaceOnUse" x="40" y="132" width="217" height="217">
<path fill-rule="evenodd" clip-rule="evenodd" d="M48.2289 173.703C42.7962 160.587 40 146.529 40 132.333H148.104L148.104 240.437C133.908 240.437 119.85 237.641 106.734 232.208C93.6186 226.775 81.7013 218.812 71.6629 208.774C61.6245 198.736 53.6617 186.818 48.2289 173.703ZM48.2289 281.807C42.7962 268.691 40 254.633 40 240.437H148.104L148.104 348.541C133.908 348.541 119.85 345.745 106.734 340.312C93.6186 334.879 81.7013 326.916 71.6629 316.878C61.6245 306.84 53.6617 294.922 48.2289 281.807ZM148.105 132.333C148.105 146.529 150.902 160.587 156.334 173.703C161.767 186.818 169.73 198.736 179.768 208.774C189.807 218.812 201.724 226.775 214.84 232.208C227.956 237.641 242.013 240.437 256.209 240.437V132.333H148.105ZM156.334 281.807C150.902 268.691 148.105 254.633 148.105 240.437H256.209V348.541C242.013 348.541 227.956 345.745 214.84 340.312C201.724 334.879 189.807 326.916 179.768 316.878C169.73 306.84 161.767 294.922 156.334 281.807Z" fill="#111111"/>
</mask>
<g mask="url(#mask0_1848_92)">
<circle cx="256.209" cy="132.333" r="107.604" stroke="#F8F8F8" stroke-dasharray="4 4"/>
<circle cx="148.104" cy="132.333" r="107.604" stroke="#F8F8F8" stroke-dasharray="4 4"/>
<circle cx="148.104" cy="240.437" r="107.604" stroke="#F8F8F8" stroke-dasharray="4 4"/>
<circle cx="256.209" cy="240.437" r="107.604" stroke="#F8F8F8" stroke-dasharray="4 4"/>
<line x1="0.141181" y1="239.5" x2="393.142" y2="239.937" stroke="#F8F8F8" stroke-dasharray="4 4"/>
<line x1="148.625" y1="-2.18557e-08" x2="148.625" y2="404" stroke="#F8F8F8" stroke-dasharray="4 4"/>
</g>
</svg>
