<svg width="108" height="108" viewBox="0 0 108 108" fill="none" xmlns="http://www.w3.org/2000/svg">
<path fill-rule="evenodd" clip-rule="evenodd" d="M49 0H60L57.7751 40.0479L76 4L85.5263 9.5L62.2816 45.0479L97.5308 22L103.031 31.5264L63.5888 51.4668L108 49V60L66.8301 57.7129L103 76L97.5 85.5264L62.9053 62.9053L85.5263 97.5L76 103L57.7127 66.8291L60 108H49L51.4673 63.5889L31.5263 103.03L22 97.5303L45.0495 62.2812L9.5 85.5264L4 76L40.0461 57.7754L0 60V49L43.2892 51.4053L3.96924 31.5264L9.46924 22L45.6721 45.6719L22 9.46973L31.5263 3.96973L51.4049 43.2881L49 0Z" fill="#FCF7F3"/>
</svg>
